<svg xmlns="http://www.w3.org/2000/svg" viewBox="0 0 600 250.282"><path d="M383.754 74.432c-5.695 0-8.708.332-10.216.667v26.298h7.87c11.388 0 17.918-5.493 17.918-13.814 0-8.325-5.526-13.15-15.572-13.15zm-90.81 13.834c-3.72-8.782-10.174-14.327-18.684-14.327-14.01 0-22.288 14.65-22.288 33.959 0 20.308 8.12 34.288 21.968 34.288h.32c13.768 0 22.336-13.824 22.28-33.777h-21.807l18.212-20.143zm288.807-65.68H475.786L454.305 0c-2.807 6.298-4.332 14.03-4.378 22.585H18.25C8.17 22.585 0 30.707 0 40.725v152.621h600V40.726c0-10.019-8.17-18.14-18.249-18.14zM109.286 165.15H33.597V52.96h73.344v24.633H63.906v17.98h40.524v24.3H63.906v20.64h45.38v24.637zm76.863-23.303c7.2 0 15.405-1.333 20.094-3.164l4.186 23.472c-4.186 2.162-14.903 4.66-28.3 4.66-42.198 0-60.784-26.135-60.784-55.93 0-39.45 29.136-59.59 62.794-59.59 12.893 0 23.443 2.497 28.131 4.826l-5.86 23.804c-4.856-1.997-11.888-3.994-20.932-3.994-17.247 0-32.317 10.153-32.317 32.958 0 20.308 12.223 32.958 32.988 32.958zm84.903 25.134h-.167c-34.997 0-54.254-26.133-54.254-57.26 0-32.625 21.434-58.592 56.096-58.592 36.337 0 54.755 26.799 54.755 56.762 0 36.118-21.767 59.09-56.43 59.09zm131.79-1.831c-1.674-3.33-4.688-11.986-7.87-25.966-3.013-13.317-7.2-16.146-16.576-16.146h-4.858v42.112h-29.972V54.625c8.538-1.333 21.433-2.497 36.504-2.497 17.247 0 29.639 2.328 38.177 8.822 7.2 5.492 11.054 13.482 11.054 24.301 0 13.983-10.55 23.804-19.258 27.134v.498c7.367 3.33 11.554 10.487 14.4 20.142 3.35 11.485 7.034 27.797 9.212 32.125h-30.813zm74.356 0H446.89V52.96h30.31v112.19zm50.238 1.665c-13.566 0-26.793-3.496-33.158-6.826l5.695-24.802c6.866 3.496 17.917 6.992 29.304 6.992 10.38 0 15.405-3.496 15.405-9.154 0-5.493-5.024-8.49-17.75-12.82-19.088-6.822-31.817-17.143-31.817-33.79 0-19.807 16.913-35.12 45.38-35.12 13.396 0 23.109 2.497 30.476 5.659l-6.363 24.135c-4.855-2.163-13.229-5.326-24.447-5.326-9.209 0-14.233 3.33-14.233 8.324 0 5.658 6.029 7.824 20.262 13.15 20.26 7.49 29.302 18.143 29.302 33.79 0 19.308-15.068 35.788-48.056 35.788zM9.708 215.848H.61v33.88h22.116v-7.59H9.708v-26.29zm11.21 13.874l5.43-.453c2.715-4.424 4.876-9.098 6.636-14.325l-8.295.453c-.753 4.774-2.06 9.448-3.77 14.325zm27.951-22.016l-4.07 6.334h7.237l6.033-6.334h-9.2zm-2.06 28.35h12.165v-7.34H46.809v-5.428h12.918v-7.44H37.711v33.88h22.72v-7.44H46.809v-6.231zm37.502-13.271c2.716 0 4.826.603 6.285 1.207l1.758-7.188c-1.407-.704-4.574-1.457-8.444-1.457-10.105 0-18.851 6.081-18.851 17.996 0 8.998 5.58 16.889 18.247 16.889 4.022 0 7.24-.754 8.495-1.407l-1.256-7.088c-1.408.55-3.871.954-6.032.954-6.234 0-9.903-3.82-9.903-9.952 0-6.887 4.524-9.954 9.701-9.954zm27.198-7.49c-10.406 0-16.84 7.843-16.84 17.695 0 9.4 5.78 17.292 16.287 17.292h.05c10.405 0 16.94-6.938 16.94-17.846 0-9.048-5.528-17.142-16.437-17.142zm-.101 27.8h-.1c-4.374 0-7.088-4.224-7.038-10.306 0-5.88 2.664-10.304 7.038-10.304 4.424 0 7.037 4.424 7.037 10.254 0 6.132-2.563 10.355-6.937 10.355zm31.422-27.247h-9.098v33.88h22.116v-7.59H142.83v-26.29zm27.55 20.209h12.164v-7.341H170.38v-5.428h12.919v-7.44H161.28v33.88h22.72v-7.44H170.38v-6.231zm54.291-17.092c-3.318-2.311-7.44-3.368-13.925-3.368-4.02 0-7.891.25-10.807.754v33.177c1.76.3 4.675.604 9.048.604 6.635 0 12.215-1.257 15.935-4.174 3.268-2.563 5.882-7.037 5.882-13.975 0-6.231-2.414-10.455-6.133-13.018zm-13.723 24.13c-.604 0-1.459 0-1.91-.1v-20.26c.451-.1 1.356-.2 2.765-.2 5.427 0 9.4 3.117 9.4 9.751 0 7.641-4.374 10.908-10.255 10.808zm34.789-7.038h12.165v-7.341h-12.165v-5.428h12.918v-7.44H236.64v33.88h22.72v-7.44h-13.622v-6.231zm38.71-20.21h-9.099v33.882h22.117v-7.591h-13.019v-26.29zm11.213 13.875l5.428-.453c2.714-4.424 4.877-9.098 6.634-14.325l-8.292.453c-.756 4.774-2.063 9.448-3.77 14.325zm25.887 6.335h12.165v-7.341h-12.165v-5.428h12.919v-7.44h-22.017v33.88h22.72v-7.44h-13.622v-6.231zm40.519-12.165c0 5.027.202 9.751.703 14.225h-.15c-1.507-3.97-3.468-8.495-5.328-11.862l-5.38-10.407h-10.705v33.88h8.294v-8.344c0-5.478-.1-10.555-.353-15.129h.2c1.61 4.07 3.82 8.645 5.68 12.215l5.782 11.259h9.55v-33.881h-8.293v8.044zm13.527-.404h8.644v26.24h9.098v-26.24h8.798v-7.64h-26.54v7.64zm51.677 10.455v-.15c2.613-1.004 5.78-3.97 5.78-8.191 0-3.27-1.157-5.681-3.317-7.341-2.564-1.96-6.284-2.664-11.462-2.664-4.524 0-8.394.35-10.958.754v33.378h8.998V237.01h1.457c2.814 0 4.071.857 4.977 4.877.954 4.221 1.86 6.835 2.364 7.842h9.248c-.653-1.307-1.76-6.234-2.764-9.702-.856-2.917-2.113-5.077-4.323-6.084zm-8.595-3.467h-2.364v-7.941c.453-.1 1.357-.203 3.067-.203 3.014 0 4.674 1.46 4.674 3.973 0 2.511-1.96 4.17-5.377 4.17zm29.76 5.58H460.6v-7.34h-12.165v-5.428h12.919v-7.44h-22.017v33.88h22.72v-7.44h-13.622v-6.231zm41.572-17.745c-2.363-1.81-5.88-2.714-10.758-2.714-5.127 0-8.695.35-11.158.754v33.378h8.998v-11.512c.553 0 1.307.1 2.21.1 4.574 0 8.548-1.104 11.262-3.517 2.16-1.96 3.317-4.927 3.317-8.345 0-3.47-1.56-6.434-3.87-8.144zM479.15 231.38c-.954 0-1.557-.05-2.06-.1v-8.645c.453-.1 1.357-.2 2.664-.2 3.467 0 5.127 1.707 5.127 4.22 0 2.917-2.21 4.725-5.73 4.725zm40.168 2.563v-.15c2.614-1.004 5.78-3.97 5.78-8.191 0-3.27-1.156-5.681-3.316-7.341-2.564-1.96-6.284-2.664-11.462-2.664-4.524 0-8.395.35-10.958.754v33.378h8.998V237.01h1.457c2.814 0 4.07.857 4.977 4.877.954 4.221 1.86 6.835 2.36 7.842h9.252c-.654-1.307-1.76-6.234-2.764-9.702-.856-2.917-2.113-5.077-4.324-6.084zm-8.597-3.467h-2.361v-7.941c.453-.1 1.357-.203 3.067-.203 3.014 0 4.674 1.46 4.674 3.973 0 2.511-1.96 4.17-5.38 4.17zm20.665 19.253h9.098v-33.881h-9.098v33.88zm30.814-20.51c-4.271-1.607-6.081-2.26-6.081-3.97 0-1.508 1.507-2.514 4.273-2.514 3.368 0 5.881.956 7.338 1.61l1.91-7.29c-2.213-.955-5.127-1.708-9.148-1.708-8.547 0-13.622 4.624-13.622 10.605 0 5.027 3.818 8.144 9.549 10.205 3.82 1.307 5.33 2.21 5.33 3.87 0 1.71-1.51 2.764-4.626 2.764-3.418 0-6.735-1.054-8.796-2.11l-1.71 7.49c1.91 1.004 5.881 2.06 9.955 2.06 9.901 0 14.426-4.976 14.426-10.807 0-4.724-2.714-7.942-8.798-10.205zm23.83 6.838h12.164v-7.341h-12.165v-5.428h12.919v-7.44H576.93v33.88h22.72v-7.44h-13.622v-6.231z" fill="#0e1113"/></svg>